<svg width="240" height="240" viewBox="0 0 240 240" fill="none" xmlns="http://www.w3.org/2000/svg">
<path fill-rule="evenodd" clip-rule="evenodd" d="M240 120C240 151.826 227.357 182.348 204.853 204.853C182.348 227.357 151.826 240 120 240C88.174 240 57.6516 227.357 35.1472 204.853C12.6428 182.348 0 151.826 0 120C0 88.174 12.6428 57.6516 35.1472 35.1472C57.6516 12.6428 88.174 0 120 0C151.826 0 182.348 12.6428 204.853 35.1472C227.357 57.6516 240 88.174 240 120V120ZM150 75C150 82.9565 146.839 90.5871 141.213 96.2132C135.587 101.839 127.956 105 120 105C112.044 105 104.413 101.839 98.7868 96.2132C93.1607 90.5871 90 82.9565 90 75C90 67.0435 93.1607 59.4129 98.7868 53.7868C104.413 48.1607 112.044 45 120 45C127.956 45 135.587 48.1607 141.213 53.7868C146.839 59.4129 150 67.0435 150 75V75ZM120 135C105.639 134.997 91.5791 139.117 79.4912 146.871C67.4033 154.625 57.7957 165.686 51.81 178.74C60.2502 188.559 70.7141 196.436 82.4842 201.832C94.2543 207.228 107.052 210.014 120 210C132.948 210.014 145.746 207.228 157.516 201.832C169.286 196.436 179.75 188.559 188.19 178.74C182.204 165.686 172.597 154.625 160.509 146.871C148.421 139.117 134.361 134.997 120 135V135Z" fill="#A7A7A7"/>
</svg>
